<svg width="96" height="96" viewBox="0 0 96 96" fill="none" xmlns="http://www.w3.org/2000/svg">
<path d="M28.0439 74.9269C26.2114 74.9269 24.7521 74.4169 23.7414 73.3873C21.2667 70.8606 21.8004 65.4105 25.2055 58.4397C31.8504 44.8286 47.4498 29.0356 59.9746 23.2361C65.6939 20.5866 70.0578 20.3693 72.2586 22.6174C74.7333 25.1441 74.1996 30.5942 70.7945 37.565C64.1496 51.1761 48.5502 66.969 36.0254 72.7686C32.9225 74.2043 30.2164 74.9269 28.0439 74.9269ZM60.0313 23.3589L60.0927 23.4864C47.6198 29.2623 32.0819 44.9939 25.4605 58.5578C22.1121 65.42 21.5595 70.752 23.9445 73.1842C26.0603 75.3425 30.3108 75.1017 35.912 72.5089C48.3849 66.7329 63.9229 51.0013 70.5442 37.4375C73.8927 30.5753 74.4452 25.2433 72.0602 22.811C69.9444 20.6527 65.6986 20.8936 60.0927 23.4864L60.0313 23.3589Z" fill="white"/>
<path d="M26.7262 75.2906C24.5821 75.2906 22.9149 74.6766 21.8381 73.444C19.3162 70.5678 20.2418 64.6266 24.379 57.1504C32.1858 43.0435 49.098 27.4205 62.081 22.3293C67.7814 20.0907 72.0744 20.171 74.1619 22.556C76.6838 25.4322 75.7582 31.3735 71.621 38.8496C63.8142 52.9566 46.902 68.5795 33.919 73.6707C31.1609 74.7522 28.7334 75.2906 26.7262 75.2906ZM69.2738 20.9833C67.3044 20.9833 64.9146 21.517 62.1849 22.5891C49.2539 27.6613 32.4077 43.2276 24.6246 57.2826C20.5488 64.6502 19.609 70.4734 22.046 73.2551C24.0484 75.5409 28.2281 75.5929 33.8104 73.4015C46.7414 68.3292 63.5875 52.7629 71.3707 38.7079C75.4464 31.3404 76.3863 25.5172 73.9493 22.7355C72.9245 21.569 71.3329 20.9833 69.2738 20.9833Z" fill="white"/>
<path d="M25.5172 75.5692C22.9905 75.5692 21.0778 74.823 19.9254 73.3495C17.3704 70.0814 18.7353 63.6395 23.6706 55.6769C32.6769 41.1402 50.888 25.8289 64.2629 21.5453C69.9113 19.7365 74.1052 20.1238 76.0746 22.641C78.6296 25.9092 77.2647 32.3511 72.3294 40.3137C63.3231 54.8504 45.112 70.1617 31.7371 74.4452C29.3946 75.2009 27.3024 75.5692 25.5172 75.5692ZM70.4828 20.7047C68.7259 20.7047 66.6668 21.073 64.3479 21.8145C51.0249 26.0839 32.8847 41.3385 23.9067 55.828C19.0375 63.682 17.6679 70.0058 20.1474 73.1795C22.0365 75.5976 26.1217 75.9518 31.6474 74.1807C44.9703 69.9113 63.1105 54.6568 72.0885 40.1673C76.9577 32.3133 78.3273 25.9895 75.8479 22.8158C74.7522 21.4131 72.915 20.7047 70.4828 20.7047Z" fill="white"/>
<path d="M24.3885 75.7865C21.4225 75.7865 19.2548 74.8797 18.0174 73.0898C15.4577 69.3824 17.3043 62.4352 23.0897 54.0239C33.3287 39.1377 52.8054 24.2845 66.5062 20.9125C72.15 19.524 76.1171 20.2135 77.9826 22.9102C80.5423 26.6176 78.6957 33.5648 72.9103 41.9761C62.6713 56.8623 43.1946 71.7155 29.4938 75.0875C27.5999 75.5551 25.8903 75.7865 24.3885 75.7865ZM71.6116 20.4922C70.1333 20.4922 68.4473 20.7236 66.5676 21.1864C52.9235 24.5443 33.5223 39.3502 23.3164 54.1845C17.6018 62.4919 15.7552 69.3257 18.2441 72.9292C20.034 75.522 23.902 76.1738 29.4229 74.8136C43.0671 71.4557 62.4683 56.6498 72.6742 41.8155C78.3887 33.5081 80.2354 26.6743 77.7464 23.0708C76.5658 21.3611 74.483 20.4922 71.6116 20.4922Z" fill="white"/>
<path d="M23.5053 75.8999C19.9538 75.8999 17.4318 74.7947 16.1283 72.6364C13.5922 68.4426 15.9724 60.9853 22.6599 52.1726C34.1552 37.0266 54.8551 22.7874 68.7968 20.4308L68.8204 20.5677L68.7968 20.4308C74.3224 19.4957 78.1526 20.5111 79.8764 23.3542C82.4126 27.548 80.0323 35.0053 73.3448 43.818C61.8496 58.964 41.1496 73.2032 27.2079 75.5598C25.8714 75.7912 24.634 75.8999 23.5053 75.8999ZM72.4994 20.3788C71.3849 20.3788 70.1617 20.4875 68.8393 20.7141C54.9543 23.0614 34.3393 37.2486 22.8772 52.3473C16.3597 60.9334 13.9228 68.4662 16.3644 72.4947C18.0221 75.2339 21.7579 76.2021 27.1607 75.2906C41.0457 72.9434 61.6606 58.7562 73.1228 43.6574C79.6403 35.0714 82.0772 27.5386 79.6356 23.51C78.3793 21.4367 75.9423 20.3788 72.4994 20.3788Z" fill="white"/>
<path d="M22.8724 75.9565C18.5841 75.9565 15.6277 74.6011 14.2581 71.98C11.8258 67.3186 14.8626 59.1529 22.386 50.1324C35.1611 34.8211 57.0182 21.3612 71.1157 20.1332C76.4949 19.6657 80.1692 21.007 81.7419 24.0154C84.1742 28.6768 81.1374 36.8425 73.614 45.863C60.8389 61.1742 38.9818 74.6342 24.8843 75.8621C24.1854 75.9282 23.5147 75.9565 22.8724 75.9565ZM71.1251 20.2749L71.1393 20.4166C57.1079 21.6398 35.3311 35.0525 22.5985 50.3165C15.1507 59.2426 12.1234 67.295 14.5037 71.8524C16.0197 74.7522 19.5995 76.0463 24.856 75.5882C38.8874 74.365 60.6641 60.9523 73.3968 45.6882C80.8446 36.7622 83.8719 28.7098 81.4916 24.1523C79.9756 21.2525 76.3957 19.9585 71.1393 20.4166L71.1251 20.2749Z" fill="white"/>
<path d="M22.5513 75.9707C22.5466 75.9707 22.5466 75.9707 22.5466 75.9707C17.3373 75.9707 13.8378 74.2846 12.4351 71.0967C10.1256 65.8497 13.8094 57.174 22.2963 47.8984C36.3513 32.5305 59.2993 20.0293 73.4534 20.0293C73.4582 20.0293 73.4582 20.0293 73.4582 20.0293C78.6674 20.0293 82.167 21.7153 83.5696 24.9079C85.8791 30.1549 82.1953 38.8307 73.7085 48.1062C59.6487 63.4694 36.7055 75.9707 22.5513 75.9707ZM73.4487 20.3079C59.3654 20.3079 36.5118 32.7666 22.4993 48.0873C14.0928 57.2779 10.4232 65.8403 12.6901 70.9834C14.0456 74.0626 17.4554 75.692 22.5466 75.692H22.5513C36.6346 75.692 59.4882 63.2333 73.5007 47.9126C81.9072 38.7221 85.5768 30.1597 83.3099 25.0166C81.9544 21.9373 78.5446 20.3079 73.4534 20.3079H73.4487Z" fill="white"/>
<path d="M22.5655 75.9707C21.7484 75.9707 20.9597 75.9329 20.1993 75.8621C15.1743 75.3803 11.8731 73.3401 10.6593 69.9491C8.54351 64.0598 12.931 54.9071 22.3954 45.4662C37.7398 30.155 61.6984 18.792 75.8007 20.1332C80.8257 20.6149 84.1269 22.6552 85.3407 26.0461C87.4565 31.9355 83.069 41.0882 73.6046 50.5291C59.0867 65.0185 36.8613 75.9707 22.5655 75.9707ZM73.4204 20.308C59.1954 20.308 37.0597 31.227 22.5891 45.6646C13.2049 55.0251 8.84577 64.0693 10.9191 69.8547C12.095 73.1323 15.3113 75.1159 20.223 75.5834C34.2496 76.92 58.1044 65.5947 73.4015 50.3354C82.7857 40.9749 87.1448 31.9307 85.0715 26.1453C83.8955 22.8677 80.6793 20.8841 75.7676 20.4166C75.0167 20.341 74.2327 20.308 73.4204 20.308Z" fill="white"/>
<path d="M22.9763 75.9943C21.1533 75.9943 19.4484 75.8432 17.8757 75.5267C13.049 74.5586 9.96507 72.1358 8.96384 68.5181C7.14085 61.9346 12.2792 52.3379 22.7071 42.8451C39.3313 27.718 64.1921 17.6821 78.1195 20.4733C82.9462 21.4414 86.0302 23.8642 87.0314 27.4819C88.8544 34.0654 83.716 43.6621 73.2881 53.1549C58.5436 66.5771 37.3053 75.9896 22.9763 75.9943ZM73.0048 20.2844C58.7467 20.2844 37.5981 29.6685 22.896 43.0482C12.5484 52.4654 7.43838 61.9582 9.23304 68.4378C10.2059 71.9469 13.2143 74.2988 17.9324 75.2434C19.4909 75.5551 21.1864 75.7062 22.9952 75.7062C37.2533 75.7062 58.4019 66.322 73.1039 52.9424C83.4516 43.5252 88.5616 34.0324 86.767 27.5527C85.7941 24.0437 82.7857 21.6917 78.0676 20.7472C76.5091 20.4355 74.8136 20.2844 73.0048 20.2844Z" fill="white"/>
<path d="M23.85 76.0745C20.7944 76.0745 18.0032 75.7062 15.5899 74.9411C10.9663 73.4676 8.12319 70.6386 7.36754 66.7565C5.94598 59.4362 11.8825 49.4475 23.2503 40.0397C41.1307 25.2338 66.7754 16.7186 80.4101 21.0636C85.0337 22.5371 87.8768 25.366 88.6325 29.2481C90.054 36.5685 84.1175 46.5571 72.7497 55.9649C58.0335 68.1497 38.0609 76.0745 23.85 76.0745ZM72.1311 20.204C57.991 20.204 38.0987 28.1052 23.4297 40.2522C12.147 49.5986 6.24352 59.4834 7.64618 66.6998C8.37822 70.4733 11.1552 73.2314 15.6749 74.6719C29.234 78.9932 54.7559 70.5017 72.5703 55.7477C83.853 46.4013 89.7565 36.5165 88.3538 29.3001C87.6218 25.5266 84.8448 22.7685 80.3251 21.328C77.9306 20.5677 75.1631 20.204 72.1311 20.204Z" fill="white"/>
<path d="M25.2433 76.2682C20.6905 76.2682 16.6242 75.5645 13.3608 74.0863C8.94023 72.0791 6.36159 68.8015 5.90348 64.6076C5.02032 56.5317 11.7975 46.2266 24.0342 37.0408C43.1379 22.7024 69.4296 15.9158 82.6392 21.9137C87.0598 23.9209 89.6384 27.1985 90.0965 31.3923C90.9797 39.4683 84.2025 49.7734 71.9658 58.9592C57.5802 69.7555 39.1235 76.2682 25.2433 76.2682ZM70.7426 20.0057C56.9331 20.0057 38.5426 26.5042 24.2043 37.2722C12.0478 46.3966 5.31313 56.6072 6.18685 64.584C6.63551 68.674 9.15748 71.8713 13.4788 73.836C26.6034 79.7961 52.7676 73.0236 71.8005 58.7372C83.9569 49.6128 90.6916 39.4022 89.8179 31.4254C89.3692 27.3354 86.8472 24.1381 82.5259 22.1734C79.2861 20.6999 75.2575 20.0057 70.7426 20.0057Z" fill="white"/>
<path d="M27.1796 76.6413C20.8464 76.6413 15.2924 75.4559 11.2119 72.9528C6.99916 70.3695 4.71806 66.5912 4.61416 62.0338C4.4158 53.2022 12.062 42.6798 25.0733 33.8813C45.3576 20.1616 72.1452 15.3018 84.7834 23.0472C88.9961 25.6306 91.2772 29.4041 91.3811 33.9663C91.5795 42.7979 83.9333 53.3202 70.922 62.1235C57.1882 71.4132 40.4695 76.6413 27.1796 76.6413ZM68.8109 19.6326C55.5871 19.6326 38.9299 24.8466 25.2338 34.1127C12.3076 42.8593 4.70389 53.2919 4.89753 62.029C4.9967 66.4873 7.23058 70.1853 11.363 72.7167C23.9162 80.4148 50.5668 75.5551 70.7709 61.8921C83.6972 53.1455 91.3008 42.7129 91.1072 33.9757C91.008 29.5174 88.7741 25.8195 84.6417 23.2881C80.5943 20.8086 75.0922 19.6326 68.8109 19.6326Z" fill="white"/>
<path d="M29.6355 77.2505C21.2572 77.2505 13.9842 75.385 9.17637 71.5171C5.17145 68.2961 3.23511 63.9559 3.5657 58.9592C4.20328 49.4192 12.7373 38.7929 26.3862 30.5469C47.7946 17.6112 74.9033 14.8909 86.8236 24.4782C90.8286 27.6991 92.7649 32.0393 92.4343 37.036C91.7967 46.5761 83.2627 57.2023 69.6138 65.4483C56.8387 73.1701 42.0328 77.2505 29.6355 77.2505ZM66.3645 19.0186C54.0239 19.0186 39.2699 23.0944 26.5326 30.7925C12.9593 38.996 4.4772 49.5325 3.84435 58.9828C3.51375 63.8803 5.42175 68.1403 9.35111 71.2998C21.1864 80.821 48.1535 78.0865 69.4674 65.2074C83.0407 57.004 91.5228 46.4674 92.1557 37.0172C92.4863 32.1196 90.5782 27.8597 86.6489 24.7001C81.8883 20.8652 74.6719 19.0186 66.3645 19.0186Z" fill="white"/>
<path d="M32.4975 78.1715C21.8618 78.1715 12.6429 75.3851 7.26836 69.7791C3.48541 65.8356 1.95051 60.8436 2.82895 55.351C4.44886 45.1876 13.8566 34.618 27.9872 27.0757C50.444 15.094 77.6898 14.7115 88.7316 26.2256C92.5146 30.1692 94.0495 35.1611 93.171 40.6537C91.5511 50.8172 82.1434 61.3867 68.0128 68.929C56.4892 75.0734 43.7046 78.1715 32.4975 78.1715ZM63.512 18.1024C52.352 18.1024 39.61 21.1864 28.1194 27.3213C14.0644 34.8211 4.71334 45.3151 3.10759 55.3935C2.24332 60.8011 3.75461 65.7081 7.47144 69.5855C18.4283 81.0146 45.5276 80.6085 67.8806 68.6834C81.9356 61.1837 91.2867 50.6896 92.8924 40.6112C93.7567 35.2036 92.2454 30.2967 88.5286 26.4193C83.2013 20.8605 74.0627 18.1024 63.512 18.1024Z" fill="white"/>
<path d="M35.5862 79.4514C22.556 79.4514 11.2308 75.4323 5.52093 67.7105C1.98829 62.9358 0.939835 57.2023 2.48891 51.1336C5.20923 40.4884 15.4482 30.1408 29.881 23.4533C53.2966 12.6051 80.4809 14.7729 90.4743 28.2847C94.007 33.0595 95.0554 38.7929 93.5064 44.8617C90.786 55.5069 80.5471 65.8545 66.1142 72.5419C56.083 77.1939 45.3529 79.4514 35.5862 79.4514ZM60.428 16.8225C50.6991 16.8225 40.0067 19.0753 30.0038 23.7084C15.6466 30.358 5.46426 40.6395 2.76755 51.2044C1.23737 57.1882 2.27166 62.8366 5.75235 67.5452C15.6702 80.9579 42.6987 83.0879 66.0009 72.2916C80.3581 65.642 90.5405 55.3605 93.2372 44.7956C94.7673 38.8118 93.7331 33.1634 90.2524 28.4548C84.5898 20.8039 73.359 16.8225 60.428 16.8225Z" fill="white"/>
<path d="M38.6749 81.1374C23.2172 81.1374 9.71004 75.5079 3.96241 65.3066C0.727309 59.5637 0.278645 52.9896 2.65893 46.2974C6.5505 35.3595 17.5499 25.4227 32.0866 19.7176C56.3617 10.1871 83.2579 15.1082 92.0329 30.6887C95.268 36.4316 95.7166 43.0009 93.3364 49.6979C89.4448 60.6358 78.4454 70.5725 63.9087 76.2777C55.5258 79.5695 46.8311 81.1374 38.6749 81.1374ZM57.3393 15.1365C49.2161 15.1365 40.5498 16.6998 32.1905 19.9821C17.7293 25.6589 6.78664 35.5342 2.9234 46.3919C0.571457 53.0085 1.0154 59.5024 4.208 65.1697C12.9215 80.6321 39.6572 85.5013 63.8095 76.0179C78.2707 70.3411 89.2134 60.4658 93.0766 49.6034C95.4285 42.9868 94.9846 36.493 91.792 30.8256C86.0916 20.7189 72.6883 15.1365 57.3393 15.1365Z" fill="white"/>
<path d="M41.5369 83.2579C23.6942 83.2579 8.0429 75.5598 2.62114 62.5627C-0.240862 55.7052 0.0377821 48.1913 3.43346 40.8426C8.51045 29.8433 20.1663 20.5111 34.6086 15.8827C59.6251 7.86346 85.9924 15.7363 93.3789 33.4373C96.2409 40.2948 95.9622 47.8088 92.5665 55.1574C87.4895 66.1568 75.8337 75.489 61.3867 80.1173C54.7418 82.2473 47.9929 83.2579 41.5369 83.2579ZM54.4726 13.0207C48.0401 13.0207 41.3243 14.0267 34.6936 16.1519C20.3269 20.7567 8.73242 30.0322 3.68849 40.9607C0.330595 48.2385 0.0472277 55.6675 2.8809 62.4541C8.26015 75.3473 23.8028 82.9793 41.5274 82.9793C47.9599 82.9793 54.6756 81.9734 61.3064 79.8481C75.6779 75.2387 87.2676 65.9678 92.3162 55.0393C95.6741 47.7615 95.9528 40.3326 93.1238 33.5459C87.7398 20.6527 72.1972 13.0207 54.4726 13.0207Z" fill="white"/>
<path d="M43.9927 85.813C23.8595 85.813 6.22463 75.5315 1.52073 59.4598C-0.86427 51.313 0.30698 42.7884 4.90225 34.7975C11.2166 23.8264 23.0802 15.5049 37.4564 11.9628C63.0822 5.64844 88.6608 16.6714 94.4745 36.5354C96.8595 44.6822 95.6883 53.2069 91.093 61.1978C84.7834 72.1688 72.915 80.4904 58.5389 84.0325C53.6461 85.2415 48.7486 85.813 43.9927 85.813ZM52.012 10.4657C47.275 10.4657 42.4059 11.0371 37.5272 12.2367C23.2219 15.7646 11.4244 24.039 5.14783 34.9391C0.590346 42.8592 -0.571458 51.3083 1.79466 59.3795C6.46076 75.3284 23.987 85.5296 43.9927 85.5296C48.7297 85.5296 53.5989 84.9581 58.4775 83.7585C72.7781 80.2354 84.5803 71.961 90.8522 61.0561C95.4096 53.136 96.5715 44.687 94.2053 36.6157C89.5392 20.6716 72.0177 10.4657 52.012 10.4657Z" fill="white"/>
<path d="M45.9291 88.8025C23.6092 88.8025 4.2694 75.3756 0.703694 56.0028C-1.03901 46.5383 1.25154 36.6771 7.15029 28.247C14.5084 17.7293 26.7168 10.3476 40.6395 7.99567C66.7188 3.58459 91.2394 17.9371 95.301 39.9972C97.0437 49.4617 94.7532 59.3182 88.8544 67.753C81.4963 78.2707 69.2879 85.6524 55.3652 88.0043C52.182 88.5427 49.0272 88.8025 45.9291 88.8025ZM50.0757 7.48089C46.9917 7.48089 43.851 7.74064 40.6868 8.27432C26.8349 10.6168 14.6973 17.956 7.38171 28.4123C1.52074 36.781 -0.750923 46.5619 0.977616 55.9508C4.5197 75.182 23.7414 88.5191 45.9243 88.5191C49.0083 88.5191 52.149 88.2594 55.3132 87.7257C69.1651 85.3832 81.3027 78.044 88.6183 67.5877C94.4745 59.219 96.7462 49.4381 95.0177 40.0445C91.4803 20.8133 72.2586 7.48089 50.0757 7.48089Z" fill="white"/>
<path d="M47.2703 92.2029C22.8488 92.2029 2.18193 75.0308 0.184189 52.182C-1.94106 27.9211 17.7813 6.30491 44.1486 3.99547C56.919 2.87617 69.3257 6.40409 79.083 13.9228C88.845 21.4461 94.7863 32.0582 95.8158 43.818C96.8454 55.573 92.8357 67.0588 84.5284 76.1643C76.2257 85.2651 64.6171 90.8899 51.8467 92.0045C50.3118 92.1368 48.7816 92.2029 47.2703 92.2029ZM48.7769 4.07575C47.2514 4.07575 45.7118 4.14187 44.1722 4.27883C17.9607 6.56938 -1.64825 28.0486 0.462834 52.1584C2.45113 74.8608 22.9952 91.9195 47.2703 91.9195C48.7769 91.9195 50.2929 91.8534 51.8231 91.7212C64.5227 90.6113 76.0651 85.0148 84.3206 75.9707C92.576 66.9265 96.5573 55.5163 95.5372 43.8416C94.517 32.1669 88.6136 21.6209 78.913 14.1447C70.3883 7.58006 59.8282 4.07575 48.7769 4.07575Z" fill="white"/>
<path d="M47.9976 96C21.5312 96 0 74.4688 0 47.9976C0 21.5312 21.5312 0 47.9976 0C74.4641 0 95.9953 21.5312 95.9953 47.9976C96 74.4688 74.4641 96 47.9976 96ZM47.9976 0.283367C21.687 0.283367 0.283367 21.687 0.283367 47.9976C0.283367 74.3083 21.6917 95.7166 48.0024 95.7166C74.313 95.7166 95.7214 74.3083 95.7214 47.9976C95.7166 21.687 74.313 0.283367 47.9976 0.283367Z" fill="white"/>
</svg>
