<svg width="96" height="96" viewBox="0 0 96 96" fill="none" xmlns="http://www.w3.org/2000/svg">
<rect width="96" height="96" fill="#F2F2F2"/>
<path d="M96 0H0V2H96V0Z" fill="#D72D14"/>
<path d="M96 8.8H0V11.4H96V8.8Z" fill="#D72D14"/>
<path d="M96 17.6H0V20.8H96V17.6Z" fill="#D72D14"/>
<path d="M96 26.4H0V30.2H96V26.4Z" fill="#D72D14"/>
<path d="M96 35.2H0V39.6H96V35.2Z" fill="#D72D14"/>
<path d="M96 44H0V49H96V44Z" fill="#D72D14"/>
<path d="M96 52.8H0V58.4H96V52.8Z" fill="#D72D14"/>
<path d="M96 61.6H0V67.8H96V61.6Z" fill="#D72D14"/>
<path d="M96 70.4H0V77.2H96V70.4Z" fill="#D72D14"/>
<path d="M96 79.2H0V86.6H96V79.2Z" fill="#D72D14"/>
<path d="M96 88H0V96H96V88Z" fill="#D72D14"/>
</svg>
